<svg xmlns="http://www.w3.org/2000/svg" width="75" height="75" fill="none" viewBox="0 0 75 75" aria-hidden="true" class="HeaderLogo-module--logo--7060a HeaderLogo-module--regular--cc121"><path fill="#D5D3DD" d="M62.5 20.5v.75c0 .199.079.39.22.53a.75.75 0 0 0 .53.22.75.75 0 0 0 .53-.22.75.75 0 0 0 .22-.53v-.75h-1.5Zm-3 0v.75c0 .199.079.39.22.53a.75.75 0 0 0 .53.22.75.75 0 0 0 .53-.22.75.75 0 0 0 .22-.53v-.75h-1.5Zm-3 0v.75c0 .199.079.39.22.53a.75.75 0 0 0 .53.22.75.75 0 0 0 .53-.22.75.75 0 0 0 .22-.53v-.75h-1.5Zm-3 0v.75c0 .199.079.39.22.53a.75.75 0 0 0 .53.22.75.75 0 0 0 .53-.22.75.75 0 0 0 .22-.53v-.75h-1.5Zm7.5 5v-.75a.75.75 0 0 1 .22-.53.75.75 0 0 1 .53-.22.75.75 0 0 1 .53.22.75.75 0 0 1 .22.53v.75H61Zm-3 0v-.75a.75.75 0 0 1 .22-.53.75.75 0 0 1 .53-.22.75.75 0 0 1 .53.22.75.75 0 0 1 .22.53v.75H58Zm-3 0v-.75a.75.75 0 0 1 .22-.53.75.75 0 0 1 .53-.22.75.75 0 0 1 .53.22.75.75 0 0 1 .22.53v.75H55Zm-3 0v-.75a.75.75 0 0 1 .22-.53.75.75 0 0 1 .53-.22.75.75 0 0 1 .53.22.75.75 0 0 1 .22.53v.75H52Z"></path><path fill="#E2CBB5" d="M74.707 52 71 48.292V47a7.033 7.033 0 0 0-1.717-4.575A7.032 7.032 0 0 0 65 40.073V39h1a7 7 0 0 0 7-7v-7a1 1 0 0 0-.293-.707A1 1 0 0 0 72 24a1 1 0 0 0-.707.293A1 1 0 0 0 71 25v.25a.25.25 0 0 1-.073.177.25.25 0 0 1-.177.073.25.25 0 0 1-.177-.073.25.25 0 0 1-.073-.177V25a1 1 0 0 0-.293-.707A1 1 0 0 0 69.5 24a1 1 0 0 0-.707.293A1 1 0 0 0 68.5 25v.25a.25.25 0 0 1-.073.177.25.25 0 0 1-.177.073.25.25 0 0 1-.177-.073.25.25 0 0 1-.073-.177V25a1 1 0 0 0-.293-.707A1 1 0 0 0 67 24a1 1 0 0 0-.707.293A1 1 0 0 0 66 25v6a1 1 0 0 1-.293.707A1 1 0 0 1 65 32v-7H52a2 2 0 0 1-1.414-.586A2 2 0 0 1 52 21h13v-1.565a2 2 0 0 0 1.077-.713 2 2 0 0 0 0-2.444A2 2 0 0 0 65 15.565V13l-1.25-1.25h-15.5L47 13v2.565a2 2 0 0 0-1.077.713 2 2 0 0 0 0 2.444 2 2 0 0 0 1.077.713V32a1 1 0 0 1-.707-.293A1 1 0 0 1 46 31v-6a1 1 0 0 0-.293-.707A1 1 0 0 0 45 24a1 1 0 0 0-.707.293A1 1 0 0 0 44 25v.25a.25.25 0 0 1-.073.177.25.25 0 0 1-.177.073.25.25 0 0 1-.177-.073.25.25 0 0 1-.073-.177V25a1 1 0 0 0-.293-.707A1 1 0 0 0 42.5 24a1 1 0 0 0-.707.293A1 1 0 0 0 41.5 25v.25a.25.25 0 0 1-.073.177.25.25 0 0 1-.177.073.25.25 0 0 1-.177-.073.25.25 0 0 1-.073-.177V25a1 1 0 0 0-.293-.707A1 1 0 0 0 40 24a1 1 0 0 0-.707.293A1 1 0 0 0 39 25v7a7 7 0 0 0 7 7h1v4a1 1 0 0 1-.293.707A1 1 0 0 1 46 44h-4v10.707L45.708 51H47a6.98 6.98 0 0 0 3.744-1.08A6.98 6.98 0 0 0 53.325 47H63a1 1 0 0 1 1 1v4h10.707Z"></path><path fill="#fff" d="M53 18.75a2.25 2.25 0 1 0 0-4.5 2.25 2.25 0 0 0 0 4.5Z"></path><path fill="#9FA628" d="M53 17.75a1.25 1.25 0 1 0 0-2.5 1.25 1.25 0 0 0 0 2.5Z"></path><path fill="#fff" d="M59 18.75a2.25 2.25 0 1 0 0-4.5 2.25 2.25 0 0 0 0 4.5Z"></path><path fill="#9FA628" d="M59 17.75a1.25 1.25 0 1 0 0-2.5 1.25 1.25 0 0 0 0 2.5Z"></path><path fill="#BF6C35" d="M47 12c0-3.813 2.188-6 6-6h6c3.813 0 6 2.188 6 6v1c-.438 0-.595-.25-.75-.5-.155-.25-.313-.5-.75-.5s-.595.25-.75.5c-.155.25-.313.5-.75.5s-.595-.25-.75-.5c-.155-.25-.313-.5-.75-.5s-.595.25-.75.5c-.155.25-.313.5-.75.5s-.595-.25-.75-.5c-.155-.25-.313-.5-.75-.5s-.595.25-.75.5c-.155.25-.313.5-.75.5s-.595-.25-.75-.5c-.155-.25-.313-.5-.75-.5s-.595.25-.75.5c-.155.25-.313.5-.75.5s-.595-.25-.75-.5c-.155-.25-.313-.5-.75-.5s-.595.25-.75.5c-.155.25-.313.5-.75.5s-.595-.25-.75-.5c-.155-.25-.313-.5-.75-.5s-.595.25-.75.5c-.155.25-.313.5-.75.5v-1Z"></path><path fill="#D5D3DD" d="m24 25-1-2-1 2 1 .5 1-.5Zm-3 0-1-2-1 2 1 .5 1-.5Zm-3 0-1-2-1 2 1 .5 1-.5Zm-3 0-1-2-1 2 1 .5 1-.5Zm-3 0-1-2-1 2 1 .5 1-.5Zm10.5-4-1 2-1-2 1-.5 1 .5Zm-3 0-1 2-1-2 1-.5 1 .5Zm-3 0-1 2-1-2 1-.5 1 .5Zm-3 0-1 2-1-2 1-.5 1 .5Z"></path><path fill="#E2CBB5" d="M6.999 41.85.969 38.5l6.03-3.35v6.7Z"></path><path fill="#E2CBB5" d="M6.999 36.85.969 33.5l6.03-3.35v6.7Z"></path><path fill="#E2CBB5" d="M6.999 31.85.969 28.5l6.03-3.35v6.7Z"></path><path fill="#E2CBB5" d="M6.999 26.85.969 23.5l6.03-3.35v6.7Z"></path><path fill="#9FA628" d="M11 25a2 2 0 0 1-2-2 2 2 0 0 1 2-2h13v-9c0-1.688-.43-3.055-1.25-4.055l1.323-1.323A2.652 2.652 0 0 0 25.5 7a.5.5 0 0 0 .354-.146A.5.5 0 0 0 26 6.5a.5.5 0 0 0-.146-.354A.5.5 0 0 0 25.5 6c-.953 0-1.5-.547-1.5-1.5a.5.5 0 0 0-.146-.354A.5.5 0 0 0 23.5 4a.5.5 0 0 0-.354.146A.5.5 0 0 0 23 4.5c-.01.498.121.988.378 1.415L22.055 7.25C21.055 6.43 19.688 6 18 6h-6c-1.688 0-3.055.43-4.055 1.25L6.622 5.928A2.653 2.653 0 0 0 7 4.5a.5.5 0 0 0-.5-.5.5.5 0 0 0-.5.5C6 5.452 5.452 6 4.5 6a.5.5 0 0 0-.5.5.5.5 0 0 0 .5.5 2.652 2.652 0 0 0 1.415-.378L7.25 7.945C6.43 8.945 6 10.312 6 12v31a1 1 0 0 1-1 1H1v10.707L4.707 51H6a6.98 6.98 0 0 0 6.325-4H22a1 1 0 0 1 1 1v4h10.707L30 48.292V47a7.033 7.033 0 0 0-1.717-4.575A7.032 7.032 0 0 0 24 40.073V40h12.925l-2.895-2.317 3.55-1.183-3.55-1.183L36.925 33H24v-1h12.925l-2.895-2.317 3.55-1.183-3.55-1.183L36.925 25H11Z"></path><path fill="#fff" d="M12 18.75a2.25 2.25 0 1 0 0-4.5 2.25 2.25 0 0 0 0 4.5Z"></path><path fill="#BF6C35" d="M12 17.75a1.25 1.25 0 1 0 0-2.5 1.25 1.25 0 0 0 0 2.5Z"></path><path fill="#fff" d="M18 18.75a2.25 2.25 0 1 0 0-4.5 2.25 2.25 0 0 0 0 4.5Z"></path><path fill="#BF6C35" d="M18 17.75a1.25 1.25 0 1 0 0-2.5 1.25 1.25 0 0 0 0 2.5Z"></path><path fill="#663F4C" class="logo-letters" d="M1 66.5a3.5 3.5 0 0 0 1.025 2.475A3.5 3.5 0 0 0 4.5 70h2v-1.75h-2a1.5 1.5 0 0 1-1.06-.44A1.5 1.5 0 0 1 3 66.75v-3h3V62H3v-2.25h3.5V58H1v8.5Zm10 .25a1.5 1.5 0 0 1-.44 1.06 1.5 1.5 0 0 1-1.06.44H9V58H7v12h2.5a3.5 3.5 0 0 0 3.5-3.5V58h-2v8.75ZM15.5 58h-2v12h2V58Zm2.5 0h-2v12h5v-1.75h-3V58Zm10.5 1.31A3.295 3.295 0 0 0 26 58h-2.5v12h2V59.75h.5a1.5 1.5 0 0 1 1.5 1.5V70h2v-8.75c0-.398.158-.78.44-1.06a1.5 1.5 0 0 1 1.06-.44h.5V70h2V58H31a3.295 3.295 0 0 0-2.5 1.31ZM34 61.5V70h2v-4.25h2V70h2V58h-2.5a3.5 3.5 0 0 0-2.475 1.025A3.5 3.5 0 0 0 34 61.5Zm4 2.5h-2v-2.75c0-.398.158-.78.44-1.06a1.5 1.5 0 0 1 1.06-.44h.5V64Zm5-6h-2.5v12h2v-4.25h.5a1.5 1.5 0 0 1 1.5 1.5V70h2v-2.5a3.1 3.1 0 0 0-.358-1.489 3.1 3.1 0 0 0-1.027-1.136A3.1 3.1 0 0 0 46.5 62.25v-.75a3.5 3.5 0 0 0-1.025-2.475A3.5 3.5 0 0 0 43 58Zm1.5 4.5a1.5 1.5 0 0 1-.44 1.06A1.5 1.5 0 0 1 43 64h-.5v-4.25h.5a1.5 1.5 0 0 1 1.5 1.5v1.25Zm2.5-2.75h1.5V70h2V59.75H52V58h-5v1.75ZM54.5 58h-2v12h2V58Zm.5 3.5V70h2v-4h2v4h2V58h-2.5a3.5 3.5 0 0 0-2.475 1.025A3.5 3.5 0 0 0 55 61.5Zm4 2.75h-2v-3c0-.398.158-.78.44-1.06a1.5 1.5 0 0 1 1.06-.44h.5v4.5Zm6.5-4.84a3.91 3.91 0 0 0-1.343-1.039A3.909 3.909 0 0 0 62.5 58h-1v12h2v-9.838c1.03.428 2 1.633 2 2.838v7h2V58h-2v1.41ZM74 62v-1c0-2.25-1.07-3.25-3-3.25s-3 1.32-3 3.25c0 3.75 4 3.765 4 6v.25c0 .75-.25 1.25-1 1.25s-1-.5-1-1.25V66h-2v1c0 2.27 1.07 3.25 3 3.25s3-1.32 3-3.25c0-3.735-4-3.75-4-6v-.25c0-.75.25-1.25 1-1.25s1 .5 1 1.25V62h2Z"></path></svg>